HIERARCHY
ROOT Hips
{
	OFFSET 0.00000 0.00000 0.00000
	CHANNELS 6 Xposition Yposition Zposition Zrotation Yrotation Xrotation 
	JOINT LHipJoint
	{
		OFFSET 0 0 0
		CHANNELS 3 Zrotation Yrotation Xrotation
		JOINT LeftHip
		{
			OFFSET 1.62329 -1.80800 0.67318
			CHANNELS 3 Zrotation Yrotation Xrotation
			JOINT LeftKnee
			{
				OFFSET 2.57139 -7.06484 0.00000
				CHANNELS 3 Zrotation Yrotation Xrotation
				JOINT LeftAnkle
				{
					OFFSET 2.52017 -6.92413 0.00000
					CHANNELS 3 Zrotation Yrotation Xrotation
					JOINT LeftToe
					{
						OFFSET 0.23295 -0.64001 2.10214
						CHANNELS 3 Zrotation Yrotation Xrotation
						End Site
						{
							OFFSET 0.00000 -0.00000 1.10139
						}
					}
				}
			}
		}
	}
	JOINT RHipJoint
	{
		OFFSET 0 0 0
		CHANNELS 3 Zrotation Yrotation Xrotation
		JOINT RightHip
		{
			OFFSET -1.48061 -1.80800 0.67318
			CHANNELS 3 Zrotation Yrotation Xrotation
			JOINT RightKnee
			{
				OFFSET -2.63258 -7.23296 0.00000
				CHANNELS 3 Zrotation Yrotation Xrotation
				JOINT RightAnkle
				{
					OFFSET -2.54779 -7.00000 0.00000
					CHANNELS 3 Zrotation Yrotation Xrotation
					JOINT RightToe
					{
						OFFSET -0.23067 -0.63376 2.12161
						CHANNELS 3 Zrotation Yrotation Xrotation
						End Site
						{
							OFFSET -0.00000 -0.00000 1.11000
						}
					}
				}
			}
		}
	}
	JOINT lowerback
	{
		OFFSET 0 0 0
		CHANNELS 3 Zrotation Yrotation Xrotation
		JOINT Chest
		{
			OFFSET -0.02108 2.07573 -0.16981
			CHANNELS 3 Zrotation Yrotation Xrotation
			JOINT Chest2
			{
				OFFSET 0.05070 2.08439 -0.03141
				CHANNELS 3 Zrotation Yrotation Xrotation
				JOINT lowerneck
				{
					OFFSET 0 0 0
					CHANNELS 3 Zrotation Yrotation Xrotation
					JOINT Neck
					{
						OFFSET -0.10731 1.60408 0.31370
						CHANNELS 3 Zrotation Yrotation Xrotation
						JOINT Head
						{
							OFFSET 0.08411 1.65679 -0.30822
							CHANNELS 3 Zrotation Yrotation Xrotation
							End Site
							{
								OFFSET 0.03911 1.69149 -0.14146
							}
						}
					}
				}
				JOINT LeftCollar
				{
					OFFSET 0 0 0
					CHANNELS 3 Zrotation Yrotation Xrotation
					JOINT LeftShoulder
					{
						OFFSET 3.52315 0.73219 -0.54694
CHANNELS 3 Zrotation Xrotation Yrotation
						JOINT LeftElbow
						{
OFFSET 0 -5.324620 -0.000000
CHANNELS 3 Zrotation Xrotation Yrotation
							JOINT LeftWrist
							{
OFFSET 0 -3.484020 -0.000000
CHANNELS 3 Zrotation Xrotation Yrotation
								JOINT lhand
								{
									OFFSET 0 0 0
CHANNELS 3 Zrotation Xrotation Yrotation
									JOINT LFingers
									{
OFFSET 0 -0.572480 -0.000000
CHANNELS 3 Zrotation Xrotation Yrotation
										End Site
										{
OFFSET 0 -0.461540 -0.000000
										}
									}
								}
								JOINT LThumb
								{
OFFSET 0 0.000000 0.000000
CHANNELS 3 Zrotation Xrotation Yrotation
									End Site
									{
OFFSET 0 -0.468590 0.468590
									}
								}
							}
						}
					}
				}
				JOINT RightCollar
				{
					OFFSET 0 0 0
					CHANNELS 3 Zrotation Yrotation Xrotation
					JOINT RightShoulder
					{
						OFFSET -3.41766 0.93592 -0.10019
CHANNELS 3 Zrotation Xrotation Yrotation
						JOINT RightElbow
						{
OFFSET 0 -5.335890 -0.000000
CHANNELS 3 Zrotation Xrotation Yrotation
							JOINT RightWrist
							{
OFFSET 0 -3.641340 -0.000000
CHANNELS 3 Zrotation Xrotation Yrotation
								JOINT rhand
								{
									OFFSET 0 0 0
CHANNELS 3 Zrotation Xrotation Yrotation
									JOINT RFingers
									{
OFFSET 0 -0.734810 -0.000000
CHANNELS 3 Zrotation Xrotation Yrotation
										End Site
										{
OFFSET 0 -0.592420 -0.000000
										}
									}
								}
								JOINT RThumb
								{
OFFSET 0 0.000000 0.000000
CHANNELS 3 Zrotation Xrotation Yrotation
									End Site
									{
OFFSET 0 -0.601470 0.601470
									}
								}
							}
						}
					}
				}
			}
		}
	}
}
MOTION
Frames: 14
Frame Time: .03333
-1.9935 17.6817 0.1012 0.3981 -1.0023 4.2904 0.0000 0.0000 0.0000 -19.2415 -3.6066 -5.9524 1.9428 8.7459 25.0037 0.9546 4.6371 -20.6901 1.2780 -7.1644 -20.2033 0.0000 0.0000 0.0000 17.4055 7.6562 -8.6600 -3.0379 -10.7561 31.4617 -1.7799 2.1164 -24.6535 -0.1422 -2.4304 6.6968 -2.7859 -0.4316 -0.2804 1.9031 -0.5696 -1.5746 3.5254 -0.2361 -1.4129 -10.7904 -3.3302 -22.1592 5.4413 -2.4445 25.0155 3.4579 -1.4165 12.1479 -0.0000 0.0000 0.0000 -1.8689 0.3578 -6.3792 12.9118 -21.1578 2.4214 11.8121 14.7152 -27.1 0.0 0.0 0.0 -7.1250 0.0 0.0 -19.9918 56.4405 5.7689 -0.0000 0.0000 0.0000 -2.3212 1.8143 8.3153 -15.7021 -25.1151 -3.5186 -19.7401 19.1409 -0.2211 0.0 0.0 0.0 7.1250 0.0 -0.0 5.3626 29.7242 2.006
-1.9918 17.6803 0.1002 0.2728 -1.0015 4.2343 0.0000 0.0000 0.0000 -19.0950 -3.5108 -6.0162 1.9675 8.7980 25.1654 0.9742 4.4376 -20.7516 1.2783 -7.1651 -20.2055 0.0000 0.0000 0.0000 17.5466 7.6697 -8.6123 -3.0380 -10.7563 31.4622 -1.7765 2.0486 -24.6461 -0.1380 -2.3946 6.5974 -2.6437 -0.3848 -0.1730 1.9426 -0.5080 -1.5006 3.4859 -0.2080 -1.4028 -10.8404 -3.3754 -22.1854 5.5259 -2.5108 24.9369 3.4857 -1.4376 12.1305 -0.0000 -0.0000 0.0000 -1.8097 0.3196 -6.6817 13.0329 -21.3354 2.4652 12.1926 14.9576 -28.2002 0.0 0.0 0.0 -7.1250 0.0 0.0 -20.3269 57.55 6.4233 -0.0000 -0.0000 0.0000 -2.3201 1.683 8.1871 -15.6741 -25.0768 -3.5067 -19.6112 19.1019 -0.5932 0.0 0.0 0.0 7.1250 0.0 -0.0 5.4431 29.3304 2.0876
-1.9865 17.6746 0.1005 0.3107 -1.0053 4.2335 0.0000 0.0000 0.0000 -19.1406 -3.4493 -6.0803 1.9793 8.8228 25.2425 0.9917 4.2745 -20.8169 1.2920 -7.2020 -20.3152 0.0000 0.0000 0.0000 17.4768 7.6208 -8.6758 -3.0558 -10.7849 31.5577 -1.7844 2.1173 -24.6853 -0.1334 -2.3540 6.4850 -2.6614 -0.3761 -0.1284 1.9524 -0.4973 -1.5051 3.5063 -0.2018 -1.4331 -10.7813 -3.3062 -22.0831 5.4948 -2.4347 24.8430 3.4743 -1.4009 12.0645 0.0000 0.0000 0.0000 -1.7635 0.3342 -6.6077 13.0322 -21.3344 2.465 11.6115 14.7432 -27.7918 0.0 0.0 0.0 -7.1250 0.0 0.0 -20.6438 57.0464 6.2752 0.0000 0.0000 0.0000 -2.3207 1.7285 8.2488 -15.7085 -25.1238 -3.5213 -19.6055 18.9121 -0.7096 0.0 0.0 0.0 7.1250 0.0 -0.0 5.4414 29.2073 2.1029
-1.9852 17.6738 0.1071 0.4279 -0.9485 4.2299 0.0000 0.0000 0.0000 -19.2584 -3.3910 -6.0442 1.9624 8.7873 25.1323 0.9832 4.2435 -20.7209 1.2837 -7.1798 -20.2492 0.0000 0.0000 0.0000 17.3492 7.5983 -8.7563 -3.0927 -10.8436 31.7542 -1.7961 2.1100 -24.7709 -0.1219 -2.2504 6.1983 -2.8088 -0.4224 -0.1452 1.9744 -0.5596 -1.4666 3.6126 -0.2325 -1.3778 -10.6624 -3.2718 -22.1599 5.2853 -2.3583 24.8930 3.3878 -1.3834 12.0878 -0.0000 -0.0000 0.0000 -1.7952 0.2733 -6.4239 12.9970 -21.2828 2.4522 11.8701 14.7067 -27.1672 0.0 0.0 0.0 -7.1250 0.0 0.0 -19.9760 56.5153 5.8008 -0.0000 -0.0000 0.0000 -2.4207 1.6506 8.4841 -15.6887 -25.0967 -3.5129 -19.571 18.9166 -0.8436 0.0 0.0 0.0 7.1250 0.0 -0.0 5.4612 29.0657 2.1291
-1.9748 17.6727 0.1137 0.6469 -0.8458 4.3273 0.0000 0.0000 0.0000 -19.5196 -3.3730 -6.1181 1.9520 8.7653 25.0639 0.9823 4.1168 -20.6397 1.2979 -7.2177 -20.3620 0.0000 0.0000 0.0000 17.0675 7.5856 -8.8826 -3.1192 -10.8856 31.8950 -1.8216 2.1715 -24.9364 -0.1260 -2.2878 6.3016 -2.9545 -0.4664 -0.2493 1.9761 -0.6169 -1.4729 3.6962 -0.2605 -1.3198 -10.7484 -3.2859 -22.2188 5.3010 -2.3459 24.9662 3.4122 -1.3852 12.1288 -0.0000 0.0000 0.0000 -1.8982 0.2206 -6.3735 12.9510 -21.2153 2.4355 11.847 14.8902 -27.765 0.0 0.0 0.0 -7.1250 0.0 0.0 -20.3874 57.0704 6.2047 -0.0000 0.0000 0.0000 -2.5545 1.6811 8.7186 -15.7483 -25.1781 -3.5382 -19.5033 19.0631 -0.259 0.0 0.0 0.0 7.1250 0.0 -0.0 5.5461 29.683 2.0807
-1.9739 17.6703 0.1204 0.5798 -0.8676 4.2829 0.0000 0.0000 0.0000 -19.4462 -3.3004 -6.1030 1.9638 8.7903 25.1416 0.9913 4.1030 -20.7149 1.2980 -7.2181 -20.3632 0.0000 0.0000 0.0000 17.1601 7.6559 -8.8393 -3.1324 -10.9064 31.9647 -1.8158 1.9757 -24.9434 -0.0894 -1.9280 5.3067 -2.9051 -0.4448 -0.2090 2.0203 -0.5882 -1.4303 3.7139 -0.2475 -1.3011 -10.7328 -3.2749 -22.1978 5.3173 -2.3422 24.9141 3.4152 -1.3788 12.1037 -0.0000 -0.0000 0.0000 -1.9026 0.148 -6.2259 12.8710 -21.0979 2.4067 11.7799 15.06 -27.7257 0.0 0.0 0.0 -7.1250 0.0 0.0 -20.4294 57.0198 6.1929 -0.0000 -0.0000 0.0000 -2.5291 1.6957 8.7181 -15.7839 -25.2267 -3.5533 -19.6511 19.201 -0.2871 0.0 0.0 0.0 7.1250 0.0 -0.0 5.4287 29.6539 2.04
-1.9656 17.6664 0.1320 0.7359 -0.7075 4.3150 0.0000 0.0000 0.0000 -19.6055 -3.1528 -6.1585 1.9588 8.7797 25.1085 0.9952 3.7929 -20.5753 1.2721 -7.1485 -20.1562 0.0000 0.0000 0.0000 16.9436 7.4327 -8.9802 -3.1659 -10.9589 32.1415 -1.8113 2.0502 -24.8933 -0.0844 -1.8734 5.1558 -2.9728 -0.5053 -0.1812 1.9876 -0.6704 -1.5137 3.7199 -0.2849 -1.3952 -10.7683 -3.2420 -21.9990 5.3975 -2.3289 24.8183 3.4517 -1.3655 12.0270 0.0000 0.0000 0.0000 -2.0022 0.3515 -5.7756 12.8701 -21.0966 2.4063 11.6502 15.2639 -27.9816 0.0 0.0 0.0 -7.1250 0.0 0.0 -20.7315 57.2315 6.3973 0.0000 0.0000 0.0000 -2.4139 1.8081 8.4868 -15.7275 -25.1497 -3.5293 -19.6887 19.0242 -0.1221 0.0 0.0 0.0 7.1250 0.0 -0.0 5.4084 29.8286 2.0097
-1.9573 17.6581 0.1411 0.7374 -0.7029 4.3230 0.0000 0.0000 0.0000 -19.6103 -2.9857 -6.3010 1.9880 8.8410 25.2991 1.0171 3.6100 -20.6760 1.2893 -7.1948 -20.2937 0.0000 0.0000 0.0000 16.9094 7.3814 -9.0662 -3.2079 -11.0243 32.3618 -1.8280 2.1159 -24.9951 -0.0687 -1.6914 4.6535 -2.9123 -0.5292 -0.0275 2.0200 -0.7050 -1.5737 3.7218 -0.2990 -1.5405 -10.7605 -3.2293 -22.2813 5.3522 -2.2713 25.1096 3.4504 -1.3490 12.1906 0.0000 0.0000 0.0000 -2.0801 0.399 -5.3728 12.9069 -21.1506 2.4196 11.6205 15.1318 -28.0471 0.0 0.0 0.0 -7.1250 0.0 0.0 -20.8058 57.2863 6.4495 0.0000 0.0000 0.0000 -2.2562 1.8753 7.5918 -15.8344 -25.2956 -3.5749 -19.1076 18.8772 -0.227 0.0 0.0 0.0 7.1250 0.0 -0.0 5.8580 29.7149 2.1943
-1.9520 17.6333 0.1435 1.0406 -0.5615 4.3049 0.0000 0.0000 0.0000 -19.8872 -2.7304 -6.6824 2.0773 9.0254 25.8747 1.0841 2.9292 -20.9263 1.2669 -7.1344 -20.1140 0.0000 0.0000 0.0000 16.4845 6.8352 -9.5332 -3.3360 -11.2201 33.0259 -1.8856 2.7606 -25.2496 -0.0758 -1.7764 4.8882 -3.1249 -0.5545 0.2031 1.9179 -0.7479 -1.5747 3.7397 -0.3157 -1.6663 -10.6333 -3.2005 -22.3969 5.3594 -2.2606 24.9001 3.4287 -1.3245 12.1274 0.0000 -0.0000 0.0000 -1.7819 0.376 -5.4601 12.9503 -21.2143 2.4353 11.2855 14.2779 -27.7762 0.0 0.0 0.0 -7.1250 0.0 0.0 -20.9632 56.9641 6.3359 0.0000 -0.0000 0.0000 -1.8546 1.6105 4.9975 -15.9354 -25.433 -3.6182 -18.0755 19.0706 -0.5803 0.0 0.0 0.0 7.1250 0.0 -0.0 6.6424 29.3398 2.5512
-1.9569 17.5837 0.1229 1.7316 -0.5808 4.0524 0.0000 0.0000 0.0000 -20.5332 -2.4410 -7.4973 2.3244 9.5115 27.4087 1.1765 2.2109 -21.3963 1.2090 -6.9754 -19.6426 0.0000 0.0000 0.0000 15.6502 6.5326 -10.2382 -3.6307 -11.6520 34.5117 -1.9582 3.4504 -25.6077 -0.0544 -1.5045 4.1382 -3.7760 -0.5244 0.9183 1.6172 -0.7436 -1.4871 3.8046 -0.3011 -1.9756 -10.5679 -3.2363 -22.9466 5.6218 -2.3520 25.0839 3.5097 -1.3218 12.3171 0.0000 0.0000 0.0000 -0.7722 0.8776 -6.4121 13.6064 -22.1692 2.6778 9.5769 12.7434 -27.0204 0.0 0.0 0.0 -7.1250 0.0 0.0 -22.1754 55.9171 6.1552 0.0000 0.0000 0.0000 -1.1279 1.0896 0.5211 -16.2316 -25.8337 -3.7463 -17.6373 17.7057 -2.4861 0.0 0.0 0.0 7.1250 0.0 -0.0 6.8663 27.3528 2.9635
-1.9757 17.4916 0.0796 2.3375 -0.1918 3.2677 0.0000 0.0000 0.0000 -20.9112 -2.0703 -8.6910 2.8573 10.4603 30.4806 1.2997 1.1350 -21.9832 1.2312 -7.0369 -19.8246 0.0000 0.0000 0.0000 15.0230 5.7969 -11.1810 -4.1724 -12.3863 37.1126 -2.0564 4.0954 -26.1502 -0.0281 -1.0820 2.9745 -4.3584 -0.6954 2.4871 1.3301 -1.0523 -1.2280 3.8680 -0.4389 -2.5586 -10.3159 -3.1676 -23.5634 5.5691 -2.2517 24.7267 3.4566 -1.2448 12.2818 0.0000 -0.0000 0.0000 0.6642 1.5019 -5.8917 14.9109 -24.0218 3.1896 8.0741 11.0569 -25.1765 0.0 0.0 0.0 -7.1250 0.0 0.0 -22.4995 53.9315 5.1404 0.0000 -0.0000 0.0000 -0.8672 0.3219 -3.1097 -16.5326 -26.2375 -3.8784 -18.8094 15.343 -3.0889 0.0 0.0 0.0 7.1250 0.0 -0.0 5.9433 26.7067 2.6515
-1.9909 17.3472 0.0004 2.2492 -0.2015 2.4052 0.0000 0.0000 0.0000 -20.3490 -1.0466 -11.0928 3.7951 11.8826 35.3180 1.5052 -0.9969 -22.9067 1.1972 -6.9424 -19.5449 0.0000 0.0000 0.0000 15.0126 5.4897 -12.6033 -4.9840 -13.3658 40.7537 -2.1855 5.1627 -26.8292 -0.0188 -0.8843 2.4305 -4.2933 -0.7073 4.2496 1.2163 -1.1349 -0.5981 3.7435 -0.4852 -2.8947 -10.0697 -3.1458 -24.4389 5.6741 -2.2190 23.6629 3.4370 -1.1601 12.0270 0.0000 0.0000 0.0000 2.9003 1.6825 -5.2043 16.5889 -26.3126 3.9033 7.0183 9.0683 -24.7606 0.0 0.0 0.0 -7.1250 0.0 0.0 -23.2689 53.3594 4.9969 0.0000 0.0000 0.0000 -1.5809 -0.7037 -5.1526 -17.2606 -27.2 -4.2058 -18.5477 13.1946 -3.0521 0.0 0.0 0.0 7.1250 0.0 -0.0 6.1441 26.7495 2.7358
-2.0036 17.1576 -0.0939 1.9337 -0.2020 1.3860 0.0000 0.0000 0.0000 -19.3016 -0.2062 -13.8998 5.0918 13.4864 41.2177 1.6423 -3.2751 -23.4001 1.4261 -7.5513 -21.3593 0.0000 0.0000 0.0000 15.2227 5.4570 -14.1195 -6.0765 -14.5020 45.2878 -2.2996 6.2236 -27.4243 -0.0020 -0.2856 0.7846 -3.9303 -0.5932 6.3229 1.1880 -1.0339 0.2155 3.5325 -0.4467 -3.2334 -10.0330 -3.3370 -25.4516 5.6409 -2.3450 22.3579 3.3672 -1.1798 11.7244 -0.0000 -0.0000 0.0000 6.3508 0.7238 -4.1188 17.7394 -27.8222 4.4269 6.195 7.2725 -25.5275 0.0 0.0 0.0 -7.1250 0.0 0.0 -24.5224 53.9095 5.632 -0.0000 -0.0000 0.0000 -3.8784 -1.6056 -5.9149 -18.1439 -28.3411 -4.6174 -17.3573 12.2301 -3.0917 0.0 0.0 0.0 7.1250 0.0 -0.0 7.0478 26.726 3.1475
-2.0301 16.9516 -0.1543 1.3252 -0.9347 0.3491 0.0000 0.0000 0.0000 -17.6025 0.5480 -16.4039 6.4983 14.8944 46.9502 1.7313 -6.2825 -23.6489 1.4800 -7.6866 -21.7661 0.0000 0.0000 0.0000 15.8034 6.7392 -15.4601 -7.3604 -15.6280 50.2244 -2.3793 6.6740 -27.8726 -0.0086 0.5980 -1.6434 -3.4923 -0.2313 7.8157 1.2479 -0.5588 1.1558 3.3168 -0.2334 -3.1396 -10.0812 -3.3957 -26.1623 5.8204 -2.3358 20.7769 3.4109 -1.1173 11.2547 0.0000 -0.0000 0.0000 11.2569 -0.5386 -2.3798 18.5230 -28.8217 4.7987 5.0418 6.4578 -26.0639 0.0 0.0 0.0 -7.1250 0.0 0.0 -25.9675 54.1812 6.1773 0.0000 -0.0000 0.0000 -7.3326 -2.6135 -7.663 -18.8824 -29.2723 -4.9732 -16.7807 13.1146 -3.1666 0.0 0.0 0.0 7.1250 0.0 -0.0 7.4818 26.6564 3.3567
